<svg width="198" height="258" viewBox="0 0 198 258" fill="none" xmlns="http://www.w3.org/2000/svg">
<path d="M33.4281 206.55V232.63H27.0781V198.24H35.7481L48.8081 224.36V198.24H55.1681V232.63H46.4881L33.4281 206.55Z" fill="black"/>
<path d="M70.6509 233.14C62.0309 233.14 59.7109 228.39 59.7109 223.23V216.88C59.7109 211.71 62.0309 206.96 70.6509 206.96C79.2709 206.96 81.6009 211.71 81.6009 216.88V223.23C81.6009 228.39 79.2809 233.14 70.6509 233.14ZM70.6509 212.33C67.3009 212.33 66.0109 213.83 66.0109 216.67V223.43C66.0109 226.28 67.3009 227.77 70.6509 227.77C74.0009 227.77 75.3009 226.28 75.3009 223.43V216.67C75.3009 213.83 74.0009 212.33 70.6509 212.33Z" fill="black"/>
<path d="M100.758 232.63V215.07C100.758 213.73 100.188 213.07 98.7584 213.07C96.4537 213.332 94.224 214.049 92.1984 215.18V232.64H85.8984V207.48H90.7084L91.3284 209.6C94.4614 208.044 97.8842 207.159 101.378 207C102.35 206.91 103.326 207.119 104.175 207.6C105.024 208.081 105.706 208.81 106.128 209.69C109.27 208.078 112.721 207.161 116.248 207C120.428 207 121.928 209.95 121.928 214.44V232.67H115.628V215.07C115.628 213.73 115.058 213.07 113.628 213.07C111.322 213.311 109.091 214.029 107.078 215.18V232.64L100.758 232.63Z" fill="black"/>
<path d="M145.727 232.63H140.557L140.097 230.92C137.868 232.37 135.266 233.141 132.607 233.14C128.017 233.14 126.047 229.99 126.047 225.66C126.047 220.54 128.277 218.58 133.387 218.58H139.387V216C139.387 213.21 138.607 212.23 134.587 212.23C132.234 212.254 129.889 212.512 127.587 213L126.807 208.2C129.637 207.415 132.56 207.011 135.497 207C143.397 207 145.727 209.79 145.727 216.09V232.63ZM139.427 223.13H134.777C132.717 223.13 132.147 223.69 132.147 225.6C132.147 227.51 132.717 228.13 134.677 228.13C136.343 228.105 137.977 227.662 139.427 226.84V223.13Z" fill="black"/>
<path d="M149.599 215.84C149.599 210.27 152.079 206.96 157.909 206.96C160.167 206.982 162.418 207.226 164.629 207.69V197.2L170.919 196.33V232.63H165.919L165.299 230.51C162.989 232.233 160.18 233.156 157.299 233.14C152.239 233.14 149.559 230.14 149.559 224.42L149.599 215.84ZM164.599 213C162.766 212.591 160.896 212.367 159.019 212.33C156.749 212.33 155.869 213.42 155.869 215.69V224.57C155.869 226.64 156.639 227.77 158.969 227.77C161.053 227.693 163.044 226.89 164.599 225.5V213Z" fill="black"/>
<path d="M33.8106 189.81V185H29.4006V189.83H27.1406V178.23H29.4006V183.09H33.8106V178.23H36.0706V189.83L33.8106 189.81ZM44.3306 189.81H42.5406L42.3806 189.24C41.6045 189.726 40.7065 189.983 39.7906 189.98C38.2006 189.98 37.5206 188.98 37.5206 187.49C37.5206 185.79 38.2906 185.14 40.0606 185.14H42.1506V184.26C42.1506 183.33 41.8806 183.01 40.4906 183.01C39.6779 183.018 38.8678 183.101 38.0706 183.26L37.8006 181.67C38.7795 181.409 39.7877 181.275 40.8006 181.27C43.5406 181.27 44.3406 182.2 44.3406 184.27L44.3306 189.81ZM42.1506 186.65H40.5406C39.8206 186.65 39.6306 186.84 39.6306 187.47C39.6306 188.1 39.8206 188.31 40.5006 188.31C41.0779 188.306 41.6451 188.159 42.1506 187.88V186.65ZM48.9006 190C47.883 189.982 46.8729 189.821 45.9006 189.52L46.2006 187.92C47.0477 188.154 47.9219 188.275 48.8006 188.28C49.8006 188.28 49.9106 188.08 49.9106 187.44C49.9106 186.8 49.8006 186.67 48.3906 186.34C46.2606 185.84 46.0106 185.34 46.0106 183.71C46.0106 182.08 46.7806 181.29 49.2606 181.29C50.1387 181.289 51.0141 181.386 51.8706 181.58L51.6606 183.25C50.8678 183.11 50.0655 183.029 49.2606 183.01C48.3106 183.01 48.1506 183.21 48.1506 183.73C48.1506 184.25 48.2106 184.45 49.3906 184.73C51.8206 185.35 52.0506 185.66 52.0506 187.38C52.0506 189.1 51.5306 190 48.9006 190ZM58.9006 189.83V184C58.9006 183.55 58.7106 183.33 58.2106 183.33C57.416 183.415 56.6452 183.653 55.9406 184.03V189.84H53.7406V178.05L55.9306 178.37V182.08C56.9225 181.591 58.0057 181.315 59.1106 181.27C60.5606 181.27 61.1106 182.27 61.1106 183.74V189.81L58.9006 189.83ZM62.9006 180.28V178.28H65.0806V180.28H62.9006ZM62.9006 189.83V181.46H65.0806V189.83H62.9006ZM66.8306 181.53C66.8306 179.44 68.1006 178.22 71.0706 178.22C72.158 178.217 73.242 178.341 74.3006 178.59L74.0506 180.47C73.0908 180.288 72.1173 180.188 71.1406 180.17C69.5806 180.17 69.0806 180.69 69.0806 181.91V186.31C69.0806 187.53 69.5806 188.04 71.1406 188.04C72.1168 188.021 73.0899 187.924 74.0506 187.75L74.3006 189.62C73.2424 189.872 72.1584 189.999 71.0706 190C68.0706 190 66.8306 188.78 66.8306 186.68V181.53ZM79.1406 190C76.1406 190 75.3406 188.42 75.3406 186.7V184.59C75.3406 182.87 76.1506 181.29 79.1406 181.29C82.1306 181.29 82.9306 182.87 82.9306 184.59V186.7C82.9306 188.4 82.1206 190 79.1406 190ZM79.1406 183.08C77.9706 183.08 77.5306 183.58 77.5306 184.52V186.77C77.5306 187.71 77.9706 188.21 79.1406 188.21C80.3106 188.21 80.7506 187.71 80.7506 186.77V184.5C80.7506 183.56 80.3006 183.06 79.1406 183.06V183.08ZM89.0706 183.21C88.2756 183.561 87.5069 183.968 86.7706 184.43V189.83H84.5806V181.46H86.4306L86.5706 182.39C87.2841 181.927 88.0536 181.558 88.8606 181.29L89.0706 183.21ZM97.8006 187C97.8006 188.86 96.9406 190 94.9206 190C94.1381 189.994 93.3579 189.913 92.5906 189.76V193.18L90.4106 193.5V181.5H92.1406L92.3606 182.21C93.1607 181.632 94.1238 181.324 95.1106 181.33C96.8706 181.33 97.8006 182.33 97.8006 184.23V187ZM92.5906 187.95C93.2254 188.085 93.8717 188.159 94.5206 188.17C95.3106 188.17 95.6106 187.81 95.6106 187.06V184.06C95.6106 183.38 95.3506 183 94.5406 183C93.8076 183.013 93.1013 183.277 92.5406 183.75L92.5906 187.95Z" fill="black"/>
<path d="M98.5094 20.1602L39.8594 54.0002V121.73L98.5094 155.59L157.159 121.73V54.0002L98.5094 20.1602ZM124.639 94.6402L109.009 103.64L90.1294 93.3902V115L72.3794 126.23V81.1102L86.4594 72.4902L105.999 82.7902V60.7902L124.649 49.5902L124.639 94.6402Z" fill="#00CA8E"/>
</svg>
